<svg width="200" height="136" viewBox="0 0 200 136" fill="none" xmlns="http://www.w3.org/2000/svg">
<path d="M150.5 79.5C150.5 106.286 143.078 128 100 128C56.9218 128 45 106.286 45 79.5C45 52.7142 46.5 2.99995 100 20.5C140.5 -0.5 150.5 52.7142 150.5 79.5Z" fill="#D7C087"/>
<rect x="59" y="51" width="16" height="16" rx="8" fill="#3A3737"/>
<path d="M124.522 61.8896C124.368 61.2387 124.577 60.5554 125.069 60.1021L127.713 57.6645C129.767 55.7706 132.661 55.0856 135.346 55.8577L138.844 56.8635C139.461 57.0408 139.934 57.5371 140.082 58.1617C140.391 59.4668 139.197 60.6305 137.9 60.2889L134.446 59.3789C133.249 59.0638 131.974 59.332 131.006 60.1026L127.477 62.9117C126.415 63.7568 124.835 63.2101 124.522 61.8896Z" fill="#3A3737"/>
<path d="M70 59C70 57.8954 70.8954 57 72 57C73.1046 57 74 57.8954 74 59C74 60.1046 73.1046 61 72 61C70.8954 61 70 60.1046 70 59Z" fill="white"/>
<path d="M96.2799 99.2451C96.2298 101.974 96.8479 104.666 98.0698 107.039C99.2917 109.411 101.073 111.378 103.226 112.734C105.38 114.09 107.828 114.784 110.314 114.746C112.8 114.707 115.234 113.936 117.361 112.514C119.487 111.092 121.229 109.07 122.404 106.66C123.579 104.25 124.145 101.54 124.041 98.8132C123.938 96.0862 123.169 93.4423 121.816 91.1575C120.463 88.8726 118.574 87.0306 116.348 85.8238L113.788 91.487C115.092 92.1941 116.199 93.2733 116.991 94.612C117.784 95.9508 118.235 97.4999 118.295 99.0976C118.356 100.695 118.025 102.283 117.336 103.695C116.648 105.107 115.627 106.292 114.381 107.125C113.135 107.958 111.709 108.41 110.252 108.433C108.796 108.455 107.362 108.048 106.1 107.254C104.838 106.46 103.794 105.307 103.078 103.917C102.362 102.527 102 100.95 102.03 99.3506L96.2799 99.2451Z" fill="#3A3737"/>
<path d="M102.05 98.2451C102.1 100.974 101.482 103.666 100.26 106.039C99.0385 108.411 97.2577 110.378 95.1039 111.734C92.95 113.09 90.5022 113.784 88.016 113.746C85.5298 113.707 83.0963 112.936 80.9697 111.514C78.843 110.092 77.1012 108.07 75.9261 105.66C74.751 103.25 74.1856 100.54 74.2891 97.8132C74.3926 95.0862 75.161 92.4423 76.5143 90.1575C77.8676 87.8726 79.756 86.0306 81.9824 84.8238L84.5426 90.487C83.2381 91.1941 82.1317 92.2733 81.3388 93.612C80.5459 94.9508 80.0957 96.4999 80.035 98.0976C79.9744 99.6953 80.3057 101.283 80.9942 102.695C81.6827 104.107 82.7032 105.292 83.9492 106.125C85.1953 106.958 86.621 107.41 88.0778 107.433C89.5345 107.455 90.9686 107.048 92.2306 106.254C93.4925 105.46 94.5359 104.307 95.2518 102.917C95.9678 101.527 96.3299 99.9498 96.3006 98.3506L102.05 98.2451Z" fill="#3A3737"/>
<mask id="mask0" mask-type="alpha" maskUnits="userSpaceOnUse" x="87" y="108" width="23" height="28">
<path d="M110 115C101.589 114.345 99.0796 107.913 99 108.5C95.1013 112.35 92.4888 113.585 87 114V127.5C87.9463 133.291 91.2237 135.553 99 135C105.99 135.334 108.952 132.263 110 127.5V115Z" fill="#C4C4C4"/>
</mask>
<g mask="url(#mask0)">
<path d="M87 103H110V127C110 131.418 106.418 135 102 135H95C90.5817 135 87 131.418 87 127V103Z" fill="#FDB0FF"/>
<ellipse cx="98.5" cy="119.5" rx="0.5" ry="8.5" fill="#201D1D" fill-opacity="0.3"/>
</g>
<path d="M158.5 24.5C179.536 36.2933 193.296 60.1202 190 66C173.353 77.6463 168.5 54.5 150.5 39.5C129.5 21.9999 102.704 23.8798 106 18C109.296 12.1202 137.464 12.7067 158.5 24.5Z" fill="#AB8706"/>
<path d="M48.5 35C24 42 24 71 4.8685 49.0283C2.1797 42.847 17.9276 30.0378 40.0424 20.4181C62.1571 10.7983 88.3112 12.3187 91 18.5C93.6888 24.6813 70.6148 25.3803 48.5 35Z" fill="#AB8706"/>
<path d="M109.445 86C109.445 92.0752 104.139 100 99.4449 100C94.7505 100 89.4449 92.0752 89.4449 86C89.4449 79.9249 94.7505 83.5 99.4449 83.5C104.139 83.5 109.445 79.9249 109.445 86Z" fill="#423E3E"/>
</svg>
